<?xml version="1.0" encoding="UTF-8" standalone="no"?>
<svg
   xmlns:dc="http://purl.org/dc/elements/1.1/"
   xmlns:cc="http://creativecommons.org/ns#"
   xmlns:rdf="http://www.w3.org/1999/02/22-rdf-syntax-ns#"
   xmlns:svg="http://www.w3.org/2000/svg"
   xmlns="http://www.w3.org/2000/svg"
   xmlns:sodipodi="http://sodipodi.sourceforge.net/DTD/sodipodi-0.dtd"
   xmlns:inkscape="http://www.inkscape.org/namespaces/inkscape"
   version="1.1"
   id="svg2"
   viewBox="0 0 40.245995 40.245995"
   height="40.245998"
   width="40.245998"
   inkscape:version="0.91 r13725"
   sodipodi:docname="baseball.svg">
  <sodipodi:namedview
     pagecolor="#ffffff"
     bordercolor="#666666"
     borderopacity="1"
     objecttolerance="10"
     gridtolerance="10"
     guidetolerance="10"
     inkscape:pageopacity="0"
     inkscape:pageshadow="2"
     inkscape:window-width="1220"
     inkscape:window-height="897"
     id="namedview8"
     showgrid="false"
     inkscape:zoom="16.585719"
     inkscape:cx="17.928344"
     inkscape:cy="20.5756"
     inkscape:window-x="75"
     inkscape:window-y="34"
     inkscape:window-maximized="0"
     inkscape:current-layer="svg2" />
  <defs
     id="defs4" />
  <metadata
     id="metadata7">
    <rdf:RDF>
      <cc:Work
         rdf:about="">
        <dc:format>image/svg+xml</dc:format>
        <dc:type
           rdf:resource="http://purl.org/dc/dcmitype/StillImage" />
        <dc:title />
      </cc:Work>
    </rdf:RDF>
  </metadata>
  <g
     transform="matrix(0.95344734,0,0,0.95344734,0.85266923,-963.97861)"
     id="layer1">
    <g
       transform="matrix(0.22529508,0,0,0.22529544,24.11107,940.8059)"
       id="g4147">
      <path
         id="path4149"
         d="m -29.497564,494.61833 c -36.89453,-5.15728 -66.86664,-32.67603 -75.834966,-69.62753 -2.24992,-9.27019 -2.24992,-29.45544 0,-38.72562 8.300886,-34.2015 34.077796,-59.9784 68.279286,-68.27929 9.27019,-2.24992 29.4554348,-2.24992 38.7256248,0 34.2015002,8.30089 59.9784002,34.07779 68.2792872,68.27929 1.09933,4.52951 1.66564,11.1127 1.66564,19.36281 0,8.25011 -0.56631,14.8333 -1.66564,19.36281 -8.153727,33.59516 -33.260647,59.22753 -66.2869672,67.67424 -8.76696,2.24221 -24.4760098,3.16749 -33.1622648,1.95329 z M 0.12862075,482.08608 c 8.04257005,-1.85991 19.47385025,-7.13289 27.17594025,-12.5356 3.30276,-2.31675 6.00501,-4.31019 6.00501,-4.42988 0,-0.11968 -1.25681,-1.79909 -2.7929,-3.73201 -2.78536,-3.50491 -2.79917,-3.50934 -5.11079,-1.63751 -6.77518,5.48621 -12.81145,-2.63588 -6.69987,-9.01499 l 2.64644,-2.76229 -2.61392,-5.92291 c -1.43766,-3.25759 -2.7535,-6.06659 -2.92409,-6.24221 -0.17058,-0.17562 -2.08761,0.21323 -4.26005,0.86411 -5.5324902,1.65757 -8.2448202,0.12258 -8.2448202,-4.66601 0,-3.29191 0.34929,-3.69842 4.78972,-5.57445 l 4.7897202,-2.02359 -0.94146,-6.29959 -0.94145,-6.29958 -4.3456702,-0.65167 c -9.53584,-1.42999 -7.74102,-11.52991 2.04893,-11.52991 2.0230602,0 2.3733402,-0.69417 3.2246202,-6.39037 l 0.95503,-6.39038 -4.7897202,-2.02359 c -4.46051,-1.88452 -4.78972,-2.27155 -4.78972,-5.63107 0,-4.77534 3.3269,-6.57137 8.6242702,-4.65581 1.939,0.70115 3.67516,1.12101 3.85811,0.93302 0.18296,-0.18799 1.50892,-3.00711 2.94658,-6.26471 l 2.61392,-5.9229 -2.64644,-2.76229 c -6.11158,-6.37911 -0.0753,-14.5012 6.69987,-9.01499 2.31162,1.87183 2.32543,1.8674 5.11079,-1.63751 1.53609,-1.93292 2.7929,-3.61233 2.7929,-3.73201 0,-0.73556 -12.54247,-8.77684 -17.85647,-11.44823 -19.8033002,-9.95526 -46.483755,-9.95526 -66.287055,0 -6.03059,3.03162 -17.85647,10.74874 -17.85647,11.65245 0,0.23201 1.19097,1.98327 2.6466,3.8917 l 2.64659,3.46987 2.16786,-2.03659 c 2.59136,-2.43446 5.81029,-2.62239 7.96752,-0.46516 2.30097,2.30097 1.9208,5.75172 -0.92857,8.42857 -3.09664,2.90914 -3.09523,3.40522 0.0297,10.47117 2.01128,4.54788 2.8822,5.58363 4.25,5.0544 4.48739,-1.73627 7.32968,-1.73658 9.24746,-0.001 3.89737,3.52707 1.86513,8.10422 -4.52713,10.19633 -2.79653,0.91526 -2.98124,1.28019 -2.72339,5.38049 0.48088,7.64661 1.01667,8.89861 3.80818,8.89861 3.30173,0 6.09315,1.52972 7.46336,4.08998 1.71048,3.19606 -1.15271,6.7432 -6.07883,7.53092 -4.25353,0.68016 -4.28568,0.7338 -5.39924,9.01073 -0.52839,3.92747 -0.39562,4.19502 2.68703,5.41469 6.83653,2.70492 8.70194,6.87078 4.69885,10.49353 -1.78421,1.61469 -2.57867,1.70614 -6.25,0.71945 -2.31328,-0.62171 -4.49685,-0.82189 -4.85237,-0.44484 -0.35553,0.37705 -1.64323,3.03592 -2.86156,5.90861 l -2.21515,5.22306 2.61156,3.10366 c 3.00768,3.57443 3.31599,6.51434 0.95657,9.12147 -2.17051,2.39838 -5.19462,2.31865 -7.88396,-0.20785 l -2.16786,-2.03659 -2.64659,3.46987 c -1.45563,1.90842 -2.6466,3.65969 -2.6466,3.8917 0,0.88324 11.76133,8.58836 17.55228,11.49889 15.40571,7.74295 33.602715,9.75579 51.26676475,5.67081 z m -74.21713475,-29.00282 2.7037,-3.54474 -3.15281,-3.25287 c -3.52665,-3.63859 -3.94789,-6.12161 -1.49782,-8.82892 1.99693,-2.20658 5.26605,-2.3557 7.90389,-0.36054 1.06762,0.8075 2.18823,1.4825 2.49024,1.5 0.62015,0.0359 3.32262,-7.02154 2.79269,-7.29307 -0.18799,-0.0963 -1.6918,-0.86517 -3.3418,-1.70855 -3.3051,-1.68936 -4.2453,-4.70546 -2.48952,-7.98617 0.92873,-1.73535 1.89835,-2.06689 5.31279,-1.81663 l 4.17673,0.30613 0.30479,-4.73495 0.30479,-4.73496 -3.48336,0 c -8.52931,0 -9.0039,-9.27635 -0.54381,-10.62917 3.99912,-0.63948 4.01779,-0.66329 3.71844,-4.74209 l -0.30085,-4.09938 -4.17673,0.3065 c -3.41464,0.25057 -4.384,-0.0808 -5.31279,-1.81627 -1.75578,-3.28071 -0.81558,-6.29681 2.48952,-7.98617 1.65,-0.84338 3.15381,-1.61223 3.3418,-1.70855 0.18799,-0.0963 -0.23991,-1.78383 -0.95089,-3.75 -1.38638,-3.83396 -2.89858,-4.47548 -4.89091,-2.07487 -2.65238,3.19592 -9,0.47534 -9,-3.85738 0,-1.12607 1.41876,-3.5112 3.1528,-5.30028 l 3.15281,-3.25287 -2.7037,-3.54474 c -1.48703,-1.9496 -2.84059,-3.54473 -3.00791,-3.54473 -0.80657,0 -8.70472,12.2267 -11.53484,17.85647 -9.95527,19.8033 -9.95527,46.48376 0,66.28706 2.83012,5.62977 10.72827,17.85647 11.53484,17.85647 0.16732,0 1.52088,-1.59513 3.00791,-3.54473 z m 120.125895,-2.20527 c 10.35437,-14.81925 14.50464,-27.76681 14.50464,-45.25 0,-13.21398 -2.12223,-22.86044 -7.29161,-33.14353 -3.0005,-5.96869 -10.74553,-17.85647 -11.6337,-17.85647 -0.81666,0 -5.24497,5.53588 -5.27554,6.59501 -0.0174,0.60226 0.92004,1.95226 2.08316,3 3.32963,2.99934 4.1967,6.28069 2.38876,9.03997 -1.79644,2.7417 -6.54511,3.22476 -8.50352,0.86502 -1.73836,-2.0946 -2.50307,-1.88605 -3.83948,1.04705 -1.74057,3.82012 -1.42488,5.16978 1.37349,5.87213 3.77399,0.94721 5.19908,4.81305 3.00735,8.15805 -1.52224,2.32322 -2.23497,2.59308 -5.64185,2.13612 -2.77388,-0.37206 -3.89951,-0.1536 -3.89951,0.75681 0,0.70391 -0.26808,2.62022 -0.59572,4.25846 -0.5607,2.80346 -0.37902,3.01379 3.08923,3.57661 4.7734,0.77462 6.50649,2.2915 6.50649,5.69477 0,3.39789 -1.39398,4.61432 -6.34903,5.54038 -3.63771,0.67986 -3.81614,0.88379 -3.25,3.71449 0.32947,1.64732 0.59903,3.57106 0.59903,4.27497 0,0.91041 1.12563,1.12887 3.89951,0.75681 3.40688,-0.45696 4.11961,-0.1871 5.64185,2.13612 2.19173,3.34501 0.76664,7.21084 -3.00735,8.15805 -2.79837,0.70235 -3.11406,2.05201 -1.37349,5.87213 1.33641,2.9331 2.10112,3.14165 3.83948,1.04705 1.95841,-2.35974 6.70708,-1.87668 8.50352,0.86502 1.80794,2.75928 0.94087,6.04063 -2.38876,9.03997 -1.16312,1.04774 -2.11476,2.37312 -2.11476,2.94528 0,0.82248 4.8567,6.64973 5.5422,6.64973 0.0924,0 1.97593,-2.5875 4.18561,-5.75 z"
         style="fill-opacity:1"
         inkscape:connector-curvature="0" />
    </g>
  </g>
</svg>
