<?xml version="1.0" encoding="utf-8"?>
<!-- Generator: Adobe Illustrator 22.0.1, SVG Export Plug-In . SVG Version: 6.00 Build 0)  -->
<svg version="1.1" id="Modified_x5F_field" xmlns="http://www.w3.org/2000/svg" xmlns:xlink="http://www.w3.org/1999/xlink" x="0px"
	 y="0px" viewBox="0 0 250 250" style="enable-background:new 0 0 250 250;" xml:space="preserve">
<style type="text/css">
	.st0{fill:#7F7C7C;}
	.st1{fill:#C4C2C2;}
	.st2{fill:#FFFFFF;}
	.st3{fill:none;stroke:#FFFFFF;stroke-miterlimit:10;}
</style>
<g>
	<path class="st0" d="M22.5,107.4L105,212.5c0,0,20.2,24.7,43.8-0.2s78.3-105.5,78.3-105.5S137.7-68.8,22.5,107.4z"/>
	<path class="st1" d="M27.8,109.2l78.5,100.1c0,0,19.2,23.5,41.7-0.2s74.5-100.4,74.5-100.4S137.4-58.4,27.8,109.2z"/>
</g>
<g>
	<path class="st0" d="M86.1,170.1l39.3,36.6l39.7-38c0,0-8.4-29.3-39.1-29.1S86.7,164.7,86.1,170.1z"/>
	<circle class="st0" cx="125.1" cy="205.7" r="6.3"/>
</g>
<rect x="107.6" y="160.5" transform="matrix(0.7071 0.7071 -0.7071 0.7071 162.7831 -36.4421)" class="st1" width="35.6" height="35.6"/>
<rect x="123.1" y="148.8" transform="matrix(0.7071 0.7071 -0.7071 0.7071 143.3661 -44.3198)" class="st2" width="4.1" height="4.2"/>
<rect x="148.4" y="174.1" transform="matrix(0.7071 0.7071 -0.7071 0.7071 168.6421 -54.7811)" class="st2" width="4.1" height="4.2"/>
<rect x="97.7" y="174.1" transform="matrix(0.7071 0.7071 -0.7071 0.7071 153.8305 -18.9521)" class="st2" width="4.1" height="4.2"/>
<polygon class="st2" points="123.3,202.2 123.3,200.2 127.2,200.2 127.2,202.2 125.1,204.3 "/>
<polyline class="st3" points="25.1,103.7 125.3,203.9 225.7,103.4 "/>
<circle class="st0" cx="125.2" cy="177.6" r="3.8"/>
<rect x="122.7" y="176.2" class="st1" width="5" height="2.6"/>
</svg>
